name rise30.3154peak39.0474fall46.5389.mot
datacolumns 19
datarows 12
range 6.47164900000000 6.48997400000000
endheader
time	ground_force1_vx	ground_force1_vy	ground_force1_vz	ground_force1_px	ground_force1_py	ground_force1_pz	ground_force2_vx	ground_force2_vy	ground_force2_vz	ground_force2_px	ground_force2_py	ground_force2_pz	ground_torque1_x	ground_torque1_y	ground_torque1_z	ground_torque2_x	ground_torque2_y	ground_torque2_z	
6.47164900000000	-46.87764200000000	794.50674300000003	58.01907800000000	0.11396300000000	0.00000000000000	0.13344600000000	-2.20363300000000	11.66616400000000	2.75620200000000	0.00000000000000	0.00000000000000	0.00000000000000	0.00000000000000	25.62064000000000	0.00000000000000	0.00000000000000	0.88738600000000	0.00000000000000	
6.47331300000000	-47.27945700000000	792.82425699999999	57.88896600000000	0.11305900000000	0.00000000000000	0.13337000000000	-2.93349300000000	16.70717700000000	3.73346800000000	0.00000000000000	0.00000000000000	0.00000000000000	0.00000000000000	25.56120100000000	0.00000000000000	0.00000000000000	1.20602600000000	0.00000000000000	
6.47498000000000	-47.69230600000000	791.06352100000004	57.74656800000000	0.11216500000000	0.00000000000000	0.13329000000000	-3.69882400000000	22.38551300000000	4.78094000000000	0.00000000000000	0.00000000000000	0.00000000000000	0.00000000000000	25.50254700000000	0.00000000000000	0.00000000000000	1.54903600000000	0.00000000000000	
6.47664300000000	-48.11661700000000	789.22238900000002	57.59146800000000	0.11128300000000	0.00000000000000	0.13320700000000	-4.47084000000000	28.59840500000000	5.86597200000000	0.27520800000000	0.00000000000000	-0.06073400000000	0.00000000000000	25.44486500000000	0.00000000000000	0.00000000000000	3.24902700000000	0.00000000000000	
6.47831600000000	-48.55277000000000	787.29862200000002	57.42326000000000	0.11041400000000	0.00000000000000	0.13312000000000	-5.21906900000000	35.22458600000000	6.95340600000000	0.28226700000000	0.00000000000000	-0.06167600000000	0.00000000000000	25.38832500000000	0.00000000000000	0.00000000000000	3.90730900000000	0.00000000000000	
6.47997600000000	-49.00109400000000	785.28989100000001	57.24153700000000	0.10956000000000	0.00000000000000	0.13302900000000	-5.91357700000000	42.13474800000000	8.00825400000000	0.28884600000000	0.00000000000000	-0.06249900000000	0.00000000000000	25.33308200000000	0.00000000000000	0.00000000000000	4.56244400000000	0.00000000000000	
6.48164700000000	-49.46186000000000	783.19377799999995	57.04590300000000	0.10872200000000	0.00000000000000	0.13293400000000	-6.52706700000000	49.20230400000000	8.99829000000000	0.29500800000000	0.00000000000000	-0.06322500000000	0.00000000000000	25.27927600000000	0.00000000000000	0.00000000000000	5.19518200000000	0.00000000000000	
6.48331600000000	-49.93528300000000	781.00778200000002	56.83596900000000	0.10790000000000	0.00000000000000	0.13283500000000	-7.03661500000000	56.31298800000000	9.89620900000000	0.30080400000000	0.00000000000000	-0.06386800000000	0.00000000000000	25.22702900000000	0.00000000000000	0.00000000000000	5.78851500000000	0.00000000000000	
6.48497700000000	-50.42151600000000	778.72932100000003	56.61135400000000	0.10709700000000	0.00000000000000	0.13273200000000	-7.42485500000000	63.37230100000000	10.68113900000000	0.30627400000000	0.00000000000000	-0.06444100000000	0.00000000000000	25.17644200000000	0.00000000000000	0.00000000000000	6.32871600000000	0.00000000000000	
6.48664200000000	-50.92064700000000	776.35573599999998	56.37168900000000	0.10631200000000	0.00000000000000	0.13262400000000	-7.68055800000000	70.31026100000000	11.33941400000000	0.31145000000000	0.00000000000000	-0.06495400000000	0.00000000000000	25.12759900000000	0.00000000000000	0.00000000000000	6.80598300000000	0.00000000000000	
6.48831900000000	-51.43269800000000	773.88429599999995	56.11661700000000	0.10554600000000	0.00000000000000	0.13251300000000	-7.79863700000000	77.08339200000000	11.86465200000000	0.31636000000000	0.00000000000000	-0.06541800000000	0.00000000000000	25.08056100000000	0.00000000000000	0.00000000000000	7.21466400000000	0.00000000000000	
6.48997400000000	-51.95762000000000	771.31220299999995	55.84579400000000	0.10480100000000	0.00000000000000	0.13239700000000	-7.77964800000000	83.67419900000000	12.25721200000000	0.32102500000000	0.00000000000000	-0.06583700000000	0.00000000000000	25.03536800000000	0.00000000000000	0.00000000000000	7.55310200000000	0.00000000000000	
